# File created by Blade
# Date/Time:  Thu Sep 25 14:26:36 2014
# Frame Rate: 120.000 fps
#------------------------------------------------------
:FULLY-SPECIFIED
:DEGREES
1155
root 5.091687 25.910511 -0.731622 -73.256279 80.367882 19.787074
Spine -41.002217 -4.238905 -0.279988
Head -105.257828 11.648276 14.433684
LeftShoulder -52.826487 58.300224 36.426769
LeftArm 134.765602 -22.031426 -170.964602
LeftForeArm 31.234992 -0.000000 75.602498
LeftHand -35.680447 -0.000000 113.572073
LeftHandThumb1 -26.253704 0.000000 33.147579
RightShoulder -25.570674 34.405617 -43.013627
RightArm 202.499377 112.774810 196.888547
RightForeArm -47.204499 -0.000000 63.214031
RightHand -7.256081 -0.000000 -83.833992
RightHandThumb1 -24.326973 -0.000000 -32.862282
LeftUpLeg 41.914990 -2.269310 23.011166
LeftLeg 71.239391 -0.000000 -0.000000
LeftFoot -30.686045 12.060694 -27.119479
LeftToeBase 8.504404 -0.000000 -0.000000
RightUpLeg 35.725732 3.252595 -22.189825
RightLeg 68.383604 -0.000000 -0.000000
RightFoot -13.095867 -30.715558 3.035794
RightToeBase 5.662975 -0.000000 -0.000000
1156
root 5.112426 25.917970 -0.766483 -73.908994 80.448120 19.191963
Spine -40.922585 -4.534753 -0.448474
Head -104.958742 11.943742 14.999252
LeftShoulder -53.514072 59.431335 35.851817
LeftArm 135.018764 -21.462044 -171.857772
LeftForeArm 30.978231 -0.000000 75.771444
LeftHand -35.661588 0.000000 113.631238
LeftHandThumb1 -26.253704 0.000000 33.147579
RightShoulder -25.093809 34.597165 -42.640315
RightArm 201.024311 112.828680 195.319184
RightForeArm -46.890751 -0.000000 62.948188
RightHand -7.196854 -0.000000 -84.087556
RightHandThumb1 -24.326973 -0.000000 -32.862282
LeftUpLeg 41.963336 -2.338251 22.938047
LeftLeg 71.286776 -0.000000 -0.000000
LeftFoot -30.781698 12.131645 -27.055145
LeftToeBase 8.501541 -0.000000 -0.000000
RightUpLeg 35.868050 3.255447 -22.281538
RightLeg 68.304711 -0.000000 -0.000000
RightFoot -13.010906 -30.514043 3.062931
RightToeBase 5.669418 -0.000000 -0.000000
1157
root 5.130983 25.926899 -0.802083 -74.576690 80.510854 18.565269
Spine -40.908807 -4.744669 -0.575092
Head -104.935722 11.855663 15.303116
LeftShoulder -54.142266 60.582427 35.165064
LeftArm 135.340285 -20.894668 -172.736856
LeftForeArm 30.602496 -0.000000 75.929409
LeftHand -35.563916 -0.000000 113.809214
LeftHandThumb1 -26.253704 0.000000 33.147579
RightShoulder -24.798781 34.538229 -42.313917
RightArm 200.784197 112.678033 195.012176
RightForeArm -46.800421 -0.000000 62.677821
RightHand -7.081626 0.000000 -84.280579
RightHandThumb1 -24.326973 -0.000000 -32.862282
LeftUpLeg 42.001712 -2.397407 22.879777
LeftLeg 71.322630 -0.000000 -0.000000
LeftFoot -30.868235 12.190312 -26.955300
LeftToeBase 8.528635 -0.000000 -0.000000
RightUpLeg 35.996733 3.266812 -22.345914
RightLeg 68.205711 -0.000000 -0.000000
RightFoot -12.865792 -30.314008 3.245201
RightToeBase 5.057145 -0.000000 -0.000000
1158
root 5.146707 25.936103 -0.837170 -75.202935 80.607397 17.953217
Spine -40.918580 -5.038117 -0.734457
Head -104.660936 12.069060 15.799222
LeftShoulder -54.657734 61.421641 34.674575
LeftArm 135.677879 -20.531673 -173.357405
LeftForeArm 30.403948 -0.000000 76.051697
LeftHand -35.535425 -0.000000 113.848631
LeftHandThumb1 -26.253704 0.000000 33.147579
RightShoulder -24.557974 34.641942 -41.945252
RightArm 200.693794 112.696028 194.765468
RightForeArm -46.674497 -0.000000 62.307863
RightHand -6.931426 -0.000000 -84.518254
RightHandThumb1 -24.326973 -0.000000 -32.862282
LeftUpLeg 42.005807 -2.453601 22.778184
LeftLeg 71.353683 -0.000000 -0.000000
LeftFoot -30.934625 12.239413 -26.892651
LeftToeBase 8.396639 -0.000000 -0.000000
RightUpLeg 36.101896 3.264913 -22.421720
RightLeg 68.105591 -0.000000 -0.000000
RightFoot -12.689810 -30.083683 3.222554
RightToeBase 4.973121 -0.000000 -0.000000
